# Blender 4.2.0
# www.blender.org
mtllib barrier.mtl
o road_drivewaySingleBarrier
v 0.500000 -0.000000 -0.450000
v 0.500000 -0.000000 -0.500000
v -0.500000 -0.000000 -0.450000
v -0.500000 -0.000000 -0.500000
v -0.500000 0.080000 -0.500000
v -0.500000 0.080000 -0.470000
v 0.500000 0.080000 -0.470000
v 0.500000 0.080000 -0.500000
vn -0.0000 -1.0000 -0.0000
vn -1.0000 -0.0000 -0.0000
vn -0.0000 0.2425 0.9701
vn -0.0000 1.0000 -0.0000
vn 1.0000 -0.0000 -0.0000
vn -0.0000 -0.0000 -1.0000
vt -19.685040 -17.716539
vt 19.685040 -19.685040
vt 19.685040 -17.716539
vt -19.685040 -19.685040
vt -17.716539 0.000000
vt -19.685040 3.149606
vt -19.685040 0.000000
vt -18.503941 3.149606
vt 19.685040 7.543431
vt -19.685040 4.296891
vt 19.685040 4.296891
vt -19.685040 7.543431
vt 19.685040 -18.503941
vt -19.685040 -18.503941
vt 18.503941 3.149606
vt 19.685040 0.000000
vt 19.685040 3.149606
vt 17.716539 0.000000
vt 19.685040 0.000000
s 0
usemtl pavement
f 3/1/1 2/2/1 1/3/1
f 2/2/1 3/1/1 4/4/1
f 3/5/2 5/6/2 4/7/2
f 5/6/2 3/5/2 6/8/2
f 7/9/3 3/10/3 1/11/3
f 3/10/3 7/9/3 6/12/3
f 8/4/4 6/13/4 7/14/4
f 6/13/4 8/4/4 5/2/4
f 7/15/5 2/16/5 8/17/5
f 2/16/5 7/15/5 1/18/5
f 5/17/6 2/7/6 4/19/6
f 2/7/6 5/17/6 8/6/6
