# Blender 4.2.0
# www.blender.org
mtllib cornerBarrier.mtl
o road_bendBarrier
v -0.450000 0.000000 0.500000
v -0.451704 0.000000 0.487059
v -0.500000 0.000000 0.500000
v -0.456699 0.000000 0.475000
v -0.464645 0.000000 0.464645
v -0.475000 0.000000 0.456699
v -0.487059 0.000000 0.451704
v -0.500000 0.000000 0.450000
v -0.470000 0.080000 0.500000
v -0.500000 0.080000 0.500000
v -0.471022 0.080000 0.492235
v -0.474019 0.080000 0.485000
v -0.478787 0.080000 0.478787
v -0.485000 0.080000 0.474019
v -0.492235 0.080000 0.471022
v -0.500000 0.080000 0.470000
vn -0.0000 -1.0000 -0.0000
vn -0.0000 1.0000 -0.0000
vn 0.2511 0.2425 -0.9371
vn 0.4850 0.2425 -0.8402
vn 0.9623 0.2406 -0.1267
vn 0.9371 0.2425 -0.2510
vn 0.9371 0.2425 -0.2511
vn 0.8402 0.2425 -0.4850
vn 0.8401 0.2425 -0.4851
vn 0.6860 0.2425 -0.6860
vn 0.4851 0.2425 -0.8401
vn 0.1267 0.2406 -0.9623
vn 0.2510 0.2425 -0.9371
vn -1.0000 -0.0000 -0.0000
vn -0.0000 -0.0000 1.0000
vt -19.685040 19.685040
vt -17.783609 19.175550
vt -17.716539 19.685040
vt -17.980261 18.700790
vt -18.293100 18.293100
vt -18.700790 17.980261
vt -19.175550 17.783609
vt -19.685040 17.716539
vt 18.544180 19.379351
vt 19.685040 19.685040
vt 18.503941 19.685040
vt 18.662170 19.094490
vt 18.849871 18.849871
vt 19.094490 18.662170
vt 19.379351 18.544180
vt 19.685040 18.503941
vt 10.807630 8.963068
vt 10.396530 5.718155
vt 10.910410 5.718155
vt 10.499300 8.963068
vt -17.101379 8.088868
vt -16.690281 4.843955
vt -16.793051 8.088868
vt -17.204161 4.843955
vt -10.807630 8.963068
vt -10.396530 5.718155
vt -10.499300 8.963068
vt -10.910410 5.718155
vt -3.787864 9.415587
vt -3.376758 6.170674
vt -3.479534 9.415587
vt -3.890640 6.170674
vt 3.787864 9.415587
vt 3.376758 6.170674
vt 3.890640 6.170674
vt 3.479534 9.415587
vt 17.101379 8.088868
vt 16.690281 4.843955
vt 17.204161 4.843955
vt 16.793051 8.088868
vt 19.685040 -0.000000
vt 18.503941 3.149606
vt 17.716539 -0.000000
vt 19.685040 3.149606
vt -18.503941 3.149606
vt -19.685040 0.000000
vt -17.716539 0.000000
vt -19.685040 3.149606
s 0
usemtl pavement.001
f 3/1/1 2/2/1 1/3/1
f 2/2/1 3/1/1 4/4/1
f 4/4/1 3/1/1 5/5/1
f 5/5/1 3/1/1 6/6/1
f 6/6/1 3/1/1 7/7/1
f 7/7/1 3/1/1 8/8/1
f 11/9/2 10/10/2 9/11/2
f 10/10/2 11/9/2 12/12/2
f 10/10/2 12/12/2 13/13/2
f 10/10/2 13/13/2 14/14/2
f 10/10/2 14/14/2 15/15/2
f 10/10/2 15/15/2 16/16/2
f 15/17/3 6/18/4 7/19/3
f 14/20/4 6/18/4 15/17/3
f 9/21/5 2/22/6 11/23/6
f 1/24/5 2/22/6 9/21/5
f 11/25/7 4/26/8 12/27/8
f 11/25/7 2/28/7 4/26/8
f 12/29/9 5/30/10 13/31/10
f 12/29/9 4/32/9 5/30/10
f 14/33/11 5/34/10 6/35/11
f 13/36/10 5/34/10 14/33/11
f 16/37/12 7/38/3 8/39/12
f 15/40/13 7/38/13 16/37/12
f 3/41/14 16/42/14 8/43/14
f 16/42/14 3/41/14 10/44/14
f 9/45/15 3/46/15 1/47/15
f 3/46/15 9/45/15 10/48/15
