# Blender 4.2.0
# www.blender.org
mtllib indicatornew.mtl
o Cube
v 1.000000 0.500000 -1.000000
v 1.000000 -0.500000 -1.000000
v 1.000000 0.500000 1.000000
v 1.000000 -0.500000 1.000000
v -1.000000 0.500000 -1.000000
v -1.000000 -0.500000 -1.000000
v -1.000000 0.500000 1.000000
v -1.000000 -0.500000 1.000000
v 0.846624 0.500000 -0.891253
v -0.846624 0.500000 -0.891253
v -0.846624 0.500000 0.891253
v 0.846624 0.500000 0.891253
v -0.846624 -0.500000 -0.891253
v 0.846624 -0.500000 -0.891253
v -0.846624 -0.500000 0.891253
v 0.846624 -0.500000 0.891253
vn -0.0000 1.0000 -0.0000
vn -0.0000 -0.0000 1.0000
vn -1.0000 -0.0000 -0.0000
vn -0.0000 -1.0000 -0.0000
vn 1.0000 -0.0000 -0.0000
vn -0.0000 -0.0000 -1.0000
vt 0.855828 0.736407
vt 0.875000 0.750000
vt 0.625000 0.750000
vt 0.644172 0.736407
vt 0.625000 0.500000
vt 0.875000 0.500000
vt 0.855828 0.513593
vt 0.644172 0.513593
vt 0.375000 0.750000
vt 0.625000 1.000000
vt 0.375000 1.000000
vt 0.375000 0.000000
vt 0.625000 0.000000
vt 0.625000 0.250000
vt 0.375000 0.250000
vt 0.144172 0.736407
vt 0.125000 0.750000
vt 0.125000 0.500000
vt 0.375000 0.500000
vt 0.355828 0.736407
vt 0.355828 0.513593
vt 0.144172 0.513593
vt 0.550822 0.000000
vt 0.449178 0.000000
vt 0.449178 0.250000
vt 0.550822 0.250000
vt 0.449178 0.500000
vt 0.550822 0.500000
vt 0.449178 0.750000
vt 0.550822 0.750000
vt 0.449178 1.000000
vt 0.550822 1.000000
s 0
usemtl Material
f 11/1/1 7/2/1 3/3/1 12/4/1
f 12/4/1 3/3/1 1/5/1 5/6/1 7/2/1 11/1/1 10/7/1 9/8/1
f 4/9/2 3/3/2 7/10/2 8/11/2
f 8/12/3 7/13/3 5/14/3 6/15/3
f 15/16/4 8/17/4 6/18/4 2/19/4 4/9/4 16/20/4 14/21/4 13/22/4
f 4/9/4 8/17/4 15/16/4 16/20/4
f 2/19/5 1/5/5 3/3/5 4/9/5
f 6/15/6 5/14/6 1/5/6 2/19/6
f 13/23/5 10/24/5 11/25/5 15/26/5
f 11/25/6 12/27/6 16/28/6 15/26/6
f 12/27/3 9/29/3 14/30/3 16/28/3
f 14/30/2 9/29/2 10/31/2 13/32/2
